<svg width="235" height="293" viewBox="0 0 235 293" fill="none" xmlns="http://www.w3.org/2000/svg">
<path d="M29.7163 49.0063C17.7387 31.7617 28.2727 10.7326 46.4537 0.237549L117.5 121.691L188.546 0.237549C206.727 10.7326 217.261 31.7617 205.284 49.0063L133.301 148.69L163.655 200.599C174.41 195.121 186.815 193.826 198.47 196.964C210.125 200.103 220.202 207.452 226.752 217.59C233.303 227.729 235.86 239.936 233.931 251.851C232.002 263.766 225.722 274.542 216.307 282.095C206.893 289.649 195.011 293.442 182.961 292.742C170.911 292.042 159.549 286.899 151.072 278.306C142.595 269.714 137.606 258.283 137.069 246.224C136.532 234.166 140.486 222.337 148.166 213.025L117.5 170.538L86.8343 213.006C94.5142 222.318 98.4681 234.147 97.9313 246.205C97.3944 258.263 92.405 269.694 83.928 278.287C75.451 286.879 64.0887 292.023 52.0388 292.723C39.9889 293.423 28.1075 289.629 18.6926 282.076C9.27778 274.523 2.99843 263.746 1.06908 251.831C-0.860266 239.916 1.69748 227.709 8.24762 217.571C14.7978 207.432 24.8749 200.083 36.5299 196.945C48.185 193.806 60.5899 195.101 71.3453 200.58L101.699 148.69L29.7163 49.0063ZM78.485 244.081C78.485 236.321 75.4022 228.878 69.9146 223.391C64.4271 217.903 56.9844 214.82 49.2238 214.82C41.4632 214.82 34.0205 217.903 28.533 223.391C23.0454 228.878 19.9625 236.321 19.9625 244.081C19.9625 251.842 23.0454 259.285 28.533 264.772C34.0205 270.26 41.4632 273.343 49.2238 273.343C56.9844 273.343 64.4271 270.26 69.9146 264.772C75.4022 259.285 78.485 251.842 78.485 244.081ZM215.038 244.081C215.038 236.321 211.955 228.878 206.467 223.391C200.98 217.903 193.537 214.82 185.776 214.82C178.016 214.82 170.573 217.903 165.085 223.391C159.598 228.878 156.515 236.321 156.515 244.081C156.515 251.842 159.598 259.285 165.085 264.772C170.573 270.26 178.016 273.343 185.776 273.343C193.537 273.343 200.98 270.26 206.467 264.772C211.955 259.285 215.038 251.842 215.038 244.081Z" fill="url(#paint0_linear_8_7)"/>
<defs>
<linearGradient id="paint0_linear_8_7" x1="0.441895" y1="146.531" x2="234.558" y2="146.531" gradientUnits="userSpaceOnUse">
<stop stop-color="#1FA2FF"/>
<stop offset="0.5" stop-color="#12D8FA"/>
<stop offset="1" stop-color="#A6FFCB"/>
</linearGradient>
</defs>
</svg>
