<svg width="930" height="530" viewBox="0 0 930 530" fill="none" xmlns="http://www.w3.org/2000/svg">
<g filter="url(#filter0_d_31_9)">
<rect x="65" y="58" width="804" height="404" rx="10" fill="#0E0517"/>
</g>
<circle cx="103" cy="90" r="10" fill="#F45D5D"/>
<circle cx="138" cy="90" r="10" fill="#E3C042"/>
<circle cx="173" cy="90" r="10" fill="#52DE3C"/>
<path d="M119.96 150.93V153.92C120.767 153.993 121.493 154.177 122.14 154.47C122.787 154.757 123.34 155.103 123.8 155.51L122.44 156.92C122.067 156.6 121.67 156.35 121.25 156.17C120.83 155.99 120.4 155.88 119.96 155.84V159.7C120.773 159.973 121.483 160.293 122.09 160.66C122.703 161.02 123.177 161.47 123.51 162.01C123.85 162.55 124.02 163.223 124.02 164.03C124.02 164.73 123.863 165.377 123.55 165.97C123.243 166.563 122.787 167.06 122.18 167.46C121.58 167.853 120.84 168.107 119.96 168.22V171.18H118.44V168.28C117.467 168.213 116.607 167.997 115.86 167.63C115.113 167.257 114.5 166.843 114.02 166.39L115.37 164.86C115.81 165.26 116.277 165.587 116.77 165.84C117.27 166.087 117.827 166.233 118.44 166.28V161.63C117.087 161.19 116.097 160.653 115.47 160.02C114.85 159.387 114.54 158.6 114.54 157.66C114.54 157 114.693 156.403 115 155.87C115.307 155.337 115.75 154.9 116.33 154.56C116.91 154.22 117.613 154.007 118.44 153.92V150.93H119.96ZM119.96 162.21V166.21C120.967 165.99 121.47 165.347 121.47 164.28C121.47 163.827 121.363 163.437 121.15 163.11C120.943 162.783 120.547 162.483 119.96 162.21ZM118.44 155.87C117.98 155.943 117.623 156.12 117.37 156.4C117.123 156.673 117 157.01 117 157.41C117 157.79 117.09 158.11 117.27 158.37C117.45 158.63 117.84 158.89 118.44 159.15V155.87Z" fill="url(#paint0_linear_31_9)"/>
<path d="M142.624 166.35C143.244 166.35 143.741 166.243 144.114 166.03C144.494 165.81 144.684 165.503 144.684 165.11C144.684 164.85 144.621 164.63 144.494 164.45C144.374 164.27 144.134 164.103 143.774 163.95C143.414 163.79 142.874 163.613 142.154 163.42C141.474 163.247 140.878 163.033 140.364 162.78C139.858 162.52 139.461 162.187 139.174 161.78C138.894 161.373 138.754 160.86 138.754 160.24C138.754 159.62 138.928 159.077 139.274 158.61C139.621 158.137 140.121 157.77 140.774 157.51C141.434 157.243 142.228 157.11 143.154 157.11C144.061 157.11 144.854 157.23 145.534 157.47C146.214 157.703 146.798 157.997 147.284 158.35L146.204 159.96C145.778 159.687 145.314 159.467 144.814 159.3C144.321 159.127 143.788 159.04 143.214 159.04C142.594 159.04 142.141 159.13 141.854 159.31C141.574 159.49 141.434 159.74 141.434 160.06C141.434 160.287 141.504 160.48 141.644 160.64C141.791 160.793 142.051 160.943 142.424 161.09C142.804 161.23 143.344 161.4 144.044 161.6C144.731 161.787 145.328 162.007 145.834 162.26C146.348 162.513 146.744 162.85 147.024 163.27C147.304 163.69 147.444 164.24 147.444 164.92C147.444 165.687 147.221 166.32 146.774 166.82C146.328 167.32 145.738 167.693 145.004 167.94C144.278 168.18 143.488 168.3 142.634 168.3C141.634 168.3 140.761 168.157 140.014 167.87C139.268 167.583 138.634 167.213 138.114 166.76L139.484 165.22C139.898 165.547 140.368 165.817 140.894 166.03C141.428 166.243 142.004 166.35 142.624 166.35ZM153.227 157.41V164.75C153.227 165.323 153.34 165.727 153.567 165.96C153.793 166.193 154.123 166.31 154.557 166.31C154.97 166.31 155.373 166.187 155.767 165.94C156.16 165.687 156.48 165.367 156.727 164.98V157.41H159.367V168H157.067L156.927 166.7C156.547 167.22 156.06 167.617 155.467 167.89C154.873 168.163 154.26 168.3 153.627 168.3C152.607 168.3 151.843 168.013 151.337 167.44C150.837 166.86 150.587 166.07 150.587 165.07V157.41H153.227ZM167.909 166.18C168.375 166.18 168.812 166.093 169.219 165.92C169.632 165.747 170.029 165.527 170.409 165.26L171.609 166.95C171.142 167.343 170.579 167.667 169.919 167.92C169.259 168.173 168.552 168.3 167.799 168.3C166.692 168.3 165.742 168.07 164.949 167.61C164.162 167.143 163.555 166.497 163.129 165.67C162.709 164.837 162.499 163.87 162.499 162.77C162.499 161.683 162.712 160.713 163.139 159.86C163.572 159 164.185 158.327 164.979 157.84C165.779 157.353 166.732 157.11 167.839 157.11C168.599 157.11 169.285 157.22 169.899 157.44C170.519 157.653 171.085 157.973 171.599 158.4L170.429 160.02C170.035 159.747 169.629 159.54 169.209 159.4C168.795 159.253 168.365 159.18 167.919 159.18C167.139 159.18 166.502 159.463 166.009 160.03C165.522 160.59 165.279 161.503 165.279 162.77C165.279 163.603 165.392 164.27 165.619 164.77C165.852 165.27 166.165 165.63 166.559 165.85C166.959 166.07 167.409 166.18 167.909 166.18ZM179.901 166.18C180.368 166.18 180.804 166.093 181.211 165.92C181.624 165.747 182.021 165.527 182.401 165.26L183.601 166.95C183.134 167.343 182.571 167.667 181.911 167.92C181.251 168.173 180.544 168.3 179.791 168.3C178.684 168.3 177.734 168.07 176.941 167.61C176.154 167.143 175.548 166.497 175.121 165.67C174.701 164.837 174.491 163.87 174.491 162.77C174.491 161.683 174.704 160.713 175.131 159.86C175.564 159 176.178 158.327 176.971 157.84C177.771 157.353 178.724 157.11 179.831 157.11C180.591 157.11 181.278 157.22 181.891 157.44C182.511 157.653 183.078 157.973 183.591 158.4L182.421 160.02C182.028 159.747 181.621 159.54 181.201 159.4C180.788 159.253 180.358 159.18 179.911 159.18C179.131 159.18 178.494 159.463 178.001 160.03C177.514 160.59 177.271 161.503 177.271 162.77C177.271 163.603 177.384 164.27 177.611 164.77C177.844 165.27 178.158 165.63 178.551 165.85C178.951 166.07 179.401 166.18 179.901 166.18ZM188.813 163.51C188.866 164.17 189.016 164.707 189.263 165.12C189.516 165.533 189.84 165.837 190.233 166.03C190.626 166.223 191.063 166.32 191.543 166.32C192.05 166.32 192.526 166.24 192.973 166.08C193.42 165.92 193.86 165.697 194.293 165.41L195.393 166.92C194.9 167.333 194.31 167.667 193.623 167.92C192.943 168.173 192.193 168.3 191.373 168.3C190.226 168.3 189.26 168.063 188.473 167.59C187.693 167.117 187.103 166.46 186.703 165.62C186.303 164.78 186.103 163.813 186.103 162.72C186.103 161.667 186.3 160.717 186.693 159.87C187.086 159.023 187.653 158.353 188.393 157.86C189.133 157.36 190.026 157.11 191.073 157.11C192.046 157.11 192.886 157.323 193.593 157.75C194.3 158.177 194.846 158.79 195.233 159.59C195.62 160.383 195.813 161.34 195.813 162.46C195.813 162.64 195.806 162.823 195.793 163.01C195.786 163.197 195.776 163.363 195.763 163.51H188.813ZM191.083 158.97C190.443 158.97 189.916 159.2 189.503 159.66C189.096 160.113 188.856 160.833 188.783 161.82H193.243C193.23 160.927 193.043 160.23 192.683 159.73C192.33 159.223 191.796 158.97 191.083 158.97ZM202.585 166.35C203.205 166.35 203.702 166.243 204.075 166.03C204.455 165.81 204.645 165.503 204.645 165.11C204.645 164.85 204.582 164.63 204.455 164.45C204.335 164.27 204.095 164.103 203.735 163.95C203.375 163.79 202.835 163.613 202.115 163.42C201.435 163.247 200.839 163.033 200.325 162.78C199.819 162.52 199.422 162.187 199.135 161.78C198.855 161.373 198.715 160.86 198.715 160.24C198.715 159.62 198.889 159.077 199.235 158.61C199.582 158.137 200.082 157.77 200.735 157.51C201.395 157.243 202.189 157.11 203.115 157.11C204.022 157.11 204.815 157.23 205.495 157.47C206.175 157.703 206.759 157.997 207.245 158.35L206.165 159.96C205.739 159.687 205.275 159.467 204.775 159.3C204.282 159.127 203.749 159.04 203.175 159.04C202.555 159.04 202.102 159.13 201.815 159.31C201.535 159.49 201.395 159.74 201.395 160.06C201.395 160.287 201.465 160.48 201.605 160.64C201.752 160.793 202.012 160.943 202.385 161.09C202.765 161.23 203.305 161.4 204.005 161.6C204.692 161.787 205.289 162.007 205.795 162.26C206.309 162.513 206.705 162.85 206.985 163.27C207.265 163.69 207.405 164.24 207.405 164.92C207.405 165.687 207.182 166.32 206.735 166.82C206.289 167.32 205.699 167.693 204.965 167.94C204.239 168.18 203.449 168.3 202.595 168.3C201.595 168.3 200.722 168.157 199.975 167.87C199.229 167.583 198.595 167.213 198.075 166.76L199.445 165.22C199.859 165.547 200.329 165.817 200.855 166.03C201.389 166.243 201.965 166.35 202.585 166.35ZM214.578 166.35C215.198 166.35 215.694 166.243 216.068 166.03C216.448 165.81 216.638 165.503 216.638 165.11C216.638 164.85 216.574 164.63 216.448 164.45C216.328 164.27 216.088 164.103 215.728 163.95C215.368 163.79 214.828 163.613 214.108 163.42C213.428 163.247 212.831 163.033 212.318 162.78C211.811 162.52 211.414 162.187 211.128 161.78C210.848 161.373 210.708 160.86 210.708 160.24C210.708 159.62 210.881 159.077 211.228 158.61C211.574 158.137 212.074 157.77 212.728 157.51C213.388 157.243 214.181 157.11 215.108 157.11C216.014 157.11 216.808 157.23 217.488 157.47C218.168 157.703 218.751 157.997 219.238 158.35L218.158 159.96C217.731 159.687 217.268 159.467 216.768 159.3C216.274 159.127 215.741 159.04 215.168 159.04C214.548 159.04 214.094 159.13 213.808 159.31C213.528 159.49 213.388 159.74 213.388 160.06C213.388 160.287 213.458 160.48 213.598 160.64C213.744 160.793 214.004 160.943 214.378 161.09C214.758 161.23 215.298 161.4 215.998 161.6C216.684 161.787 217.281 162.007 217.788 162.26C218.301 162.513 218.698 162.85 218.978 163.27C219.258 163.69 219.398 164.24 219.398 164.92C219.398 165.687 219.174 166.32 218.728 166.82C218.281 167.32 217.691 167.693 216.958 167.94C216.231 168.18 215.441 168.3 214.587 168.3C213.588 168.3 212.714 168.157 211.968 167.87C211.221 167.583 210.588 167.213 210.068 166.76L211.438 165.22C211.851 165.547 212.321 165.817 212.848 166.03C213.381 166.243 213.958 166.35 214.578 166.35ZM229.11 152.9C229.816 152.9 230.443 152.957 230.99 153.07C231.536 153.183 232.033 153.337 232.48 153.53L231.72 155.31C231.366 155.163 230.996 155.057 230.61 154.99C230.223 154.923 229.836 154.89 229.45 154.89C228.783 154.89 228.296 155.017 227.99 155.27C227.69 155.517 227.54 155.913 227.54 156.46V158.13H231.04L230.75 160.02H227.54V168H224.91V160.02H222.58V158.13H224.91V156.4C224.91 155.713 225.076 155.11 225.41 154.59C225.743 154.063 226.223 153.65 226.85 153.35C227.483 153.05 228.236 152.9 229.11 152.9ZM237.172 157.41V164.75C237.172 165.323 237.285 165.727 237.512 165.96C237.739 166.193 238.069 166.31 238.502 166.31C238.915 166.31 239.319 166.187 239.712 165.94C240.105 165.687 240.425 165.367 240.672 164.98V157.41H243.312V168H241.012L240.872 166.7C240.492 167.22 240.005 167.617 239.412 167.89C238.819 168.163 238.205 168.3 237.572 168.3C236.552 168.3 235.789 168.013 235.282 167.44C234.782 166.86 234.532 166.07 234.532 165.07V157.41H237.172ZM251.564 153.18V164.92C251.564 165.38 251.697 165.707 251.964 165.9C252.237 166.093 252.604 166.19 253.064 166.19C253.351 166.19 253.627 166.16 253.894 166.1C254.161 166.033 254.414 165.953 254.654 165.86L255.304 167.66C254.971 167.827 254.564 167.973 254.084 168.1C253.611 168.233 253.061 168.3 252.434 168.3C251.281 168.3 250.407 167.97 249.814 167.31C249.221 166.65 248.924 165.76 248.924 164.64V155.05H245.754V153.18H251.564ZM263.556 153.18V164.92C263.556 165.38 263.69 165.707 263.956 165.9C264.23 166.093 264.596 166.19 265.056 166.19C265.343 166.19 265.62 166.16 265.886 166.1C266.153 166.033 266.406 165.953 266.646 165.86L267.296 167.66C266.963 167.827 266.556 167.973 266.076 168.1C265.603 168.233 265.053 168.3 264.426 168.3C263.273 168.3 262.4 167.97 261.806 167.31C261.213 166.65 260.916 165.76 260.916 164.64V155.05H257.746V153.18H263.556ZM280.098 157.41L276.508 168.02C276.215 168.887 275.835 169.63 275.368 170.25C274.902 170.87 274.312 171.36 273.598 171.72C272.892 172.087 272.025 172.303 270.998 172.37L270.668 170.46C271.382 170.36 271.952 170.21 272.378 170.01C272.805 169.81 273.145 169.547 273.398 169.22C273.658 168.893 273.882 168.487 274.068 168H273.168L269.698 157.41H272.488L274.888 166.24L277.388 157.41H280.098ZM302.943 165.21C302.943 165.617 303.003 165.913 303.123 166.1C303.243 166.28 303.436 166.417 303.703 166.51L303.133 168.28C302.566 168.22 302.083 168.08 301.683 167.86C301.289 167.633 300.986 167.297 300.773 166.85C300.373 167.337 299.866 167.7 299.253 167.94C298.646 168.18 298.009 168.3 297.343 168.3C296.263 168.3 295.406 167.993 294.773 167.38C294.139 166.767 293.823 165.97 293.823 164.99C293.823 163.863 294.263 162.997 295.143 162.39C296.029 161.777 297.283 161.47 298.903 161.47H300.383V160.9C300.383 160.273 300.189 159.82 299.803 159.54C299.416 159.253 298.859 159.11 298.133 159.11C297.793 159.11 297.366 159.157 296.853 159.25C296.346 159.337 295.823 159.473 295.283 159.66L294.653 157.85C295.326 157.597 296.003 157.41 296.683 157.29C297.369 157.17 297.993 157.11 298.553 157.11C300.039 157.11 301.143 157.427 301.863 158.06C302.583 158.687 302.943 159.577 302.943 160.73V165.21ZM298.203 166.39C298.603 166.39 299.006 166.277 299.413 166.05C299.826 165.823 300.149 165.507 300.383 165.1V163.04H299.343C298.363 163.04 297.653 163.197 297.213 163.51C296.779 163.823 296.563 164.267 296.563 164.84C296.563 165.333 296.703 165.717 296.983 165.99C297.263 166.257 297.669 166.39 298.203 166.39ZM309.125 157.41V164.75C309.125 165.323 309.238 165.727 309.465 165.96C309.692 166.193 310.022 166.31 310.455 166.31C310.868 166.31 311.272 166.187 311.665 165.94C312.058 165.687 312.378 165.367 312.625 164.98V157.41H315.265V168H312.965L312.825 166.7C312.445 167.22 311.958 167.617 311.365 167.89C310.772 168.163 310.158 168.3 309.525 168.3C308.505 168.3 307.742 168.013 307.235 167.44C306.735 166.86 306.485 166.07 306.485 165.07V157.41H309.125ZM327.617 167.41C327.224 167.67 326.747 167.883 326.187 168.05C325.627 168.217 325.021 168.3 324.367 168.3C323.074 168.3 322.101 167.967 321.447 167.3C320.794 166.627 320.467 165.733 320.467 164.62V159.28H318.167V157.41H320.467V155.08L323.107 154.76V157.41H326.607L326.337 159.28H323.107V164.61C323.107 165.157 323.241 165.557 323.507 165.81C323.774 166.063 324.204 166.19 324.797 166.19C325.177 166.19 325.524 166.147 325.837 166.06C326.157 165.967 326.447 165.85 326.707 165.71L327.617 167.41ZM333.109 152.93V158.6C333.549 158.1 334.043 157.727 334.589 157.48C335.143 157.233 335.719 157.11 336.319 157.11C337.293 157.11 338.023 157.387 338.509 157.94C339.003 158.487 339.249 159.257 339.249 160.25V168H336.609V160.84C336.609 160.2 336.509 159.747 336.309 159.48C336.116 159.213 335.783 159.08 335.309 159.08C335.029 159.08 334.756 159.147 334.489 159.28C334.229 159.407 333.983 159.58 333.749 159.8C333.523 160.02 333.309 160.267 333.109 160.54V168H330.469V153.19L333.109 152.93ZM344.712 163.51C344.765 164.17 344.915 164.707 345.162 165.12C345.415 165.533 345.738 165.837 346.132 166.03C346.525 166.223 346.962 166.32 347.442 166.32C347.948 166.32 348.425 166.24 348.872 166.08C349.318 165.92 349.758 165.697 350.192 165.41L351.292 166.92C350.798 167.333 350.208 167.667 349.522 167.92C348.842 168.173 348.092 168.3 347.272 168.3C346.125 168.3 345.158 168.063 344.372 167.59C343.592 167.117 343.002 166.46 342.602 165.62C342.202 164.78 342.002 163.813 342.002 162.72C342.002 161.667 342.198 160.717 342.592 159.87C342.985 159.023 343.552 158.353 344.292 157.86C345.032 157.36 345.925 157.11 346.972 157.11C347.945 157.11 348.785 157.323 349.492 157.75C350.198 158.177 350.745 158.79 351.132 159.59C351.518 160.383 351.712 161.34 351.712 162.46C351.712 162.64 351.705 162.823 351.692 163.01C351.685 163.197 351.675 163.363 351.662 163.51H344.712ZM346.982 158.97C346.342 158.97 345.815 159.2 345.402 159.66C344.995 160.113 344.755 160.833 344.682 161.82H349.142C349.128 160.927 348.942 160.23 348.582 159.73C348.228 159.223 347.695 158.97 346.982 158.97ZM354.454 168V157.41H356.754L356.944 158.72C357.397 158.187 357.907 157.787 358.474 157.52C359.04 157.247 359.65 157.11 360.304 157.11C361.257 157.11 361.984 157.387 362.484 157.94C362.984 158.487 363.234 159.257 363.234 160.25V168H360.594V161.28C360.594 160.747 360.56 160.32 360.494 160C360.427 159.673 360.3 159.44 360.114 159.3C359.927 159.153 359.657 159.08 359.304 159.08C359.017 159.08 358.74 159.143 358.474 159.27C358.214 159.397 357.967 159.567 357.734 159.78C357.507 159.993 357.294 160.23 357.094 160.49V168H354.454ZM375.586 167.41C375.193 167.67 374.716 167.883 374.156 168.05C373.596 168.217 372.989 168.3 372.336 168.3C371.043 168.3 370.069 167.967 369.416 167.3C368.763 166.627 368.436 165.733 368.436 164.62V159.28H366.136V157.41H368.436V155.08L371.076 154.76V157.41H374.576L374.306 159.28H371.076V164.61C371.076 165.157 371.209 165.557 371.476 165.81C371.743 166.063 372.173 166.19 372.766 166.19C373.146 166.19 373.493 166.147 373.806 166.06C374.126 165.967 374.416 165.85 374.676 165.71L375.586 167.41ZM384.528 157.41V166.13H387.318V168H378.788V166.13H381.888V159.28H378.888V157.41H384.528ZM382.818 152.07C383.305 152.07 383.698 152.22 383.998 152.52C384.305 152.82 384.458 153.193 384.458 153.64C384.458 154.087 384.305 154.463 383.998 154.77C383.698 155.07 383.305 155.22 382.818 155.22C382.331 155.22 381.935 155.07 381.628 154.77C381.321 154.463 381.168 154.087 381.168 153.64C381.168 153.193 381.321 152.82 381.628 152.52C381.935 152.22 382.331 152.07 382.818 152.07ZM395.76 166.18C396.227 166.18 396.664 166.093 397.07 165.92C397.484 165.747 397.88 165.527 398.26 165.26L399.46 166.95C398.994 167.343 398.43 167.667 397.77 167.92C397.11 168.173 396.404 168.3 395.65 168.3C394.544 168.3 393.594 168.07 392.8 167.61C392.014 167.143 391.407 166.497 390.98 165.67C390.56 164.837 390.35 163.87 390.35 162.77C390.35 161.683 390.564 160.713 390.99 159.86C391.424 159 392.037 158.327 392.83 157.84C393.63 157.353 394.584 157.11 395.69 157.11C396.45 157.11 397.137 157.22 397.75 157.44C398.37 157.653 398.937 157.973 399.45 158.4L398.28 160.02C397.887 159.747 397.48 159.54 397.06 159.4C396.647 159.253 396.217 159.18 395.77 159.18C394.99 159.18 394.354 159.463 393.86 160.03C393.374 160.59 393.13 161.503 393.13 162.77C393.13 163.603 393.244 164.27 393.47 164.77C393.704 165.27 394.017 165.63 394.41 165.85C394.81 166.07 395.26 166.18 395.76 166.18ZM410.873 165.21C410.873 165.617 410.933 165.913 411.053 166.1C411.173 166.28 411.366 166.417 411.633 166.51L411.063 168.28C410.496 168.22 410.013 168.08 409.613 167.86C409.219 167.633 408.916 167.297 408.703 166.85C408.303 167.337 407.796 167.7 407.183 167.94C406.576 168.18 405.939 168.3 405.273 168.3C404.193 168.3 403.336 167.993 402.703 167.38C402.069 166.767 401.753 165.97 401.753 164.99C401.753 163.863 402.193 162.997 403.073 162.39C403.959 161.777 405.213 161.47 406.833 161.47H408.313V160.9C408.313 160.273 408.119 159.82 407.733 159.54C407.346 159.253 406.789 159.11 406.063 159.11C405.723 159.11 405.296 159.157 404.783 159.25C404.276 159.337 403.753 159.473 403.213 159.66L402.583 157.85C403.256 157.597 403.933 157.41 404.613 157.29C405.299 157.17 405.923 157.11 406.483 157.11C407.969 157.11 409.073 157.427 409.793 158.06C410.513 158.687 410.873 159.577 410.873 160.73V165.21ZM406.133 166.39C406.533 166.39 406.936 166.277 407.343 166.05C407.756 165.823 408.079 165.507 408.313 165.1V163.04H407.273C406.293 163.04 405.583 163.197 405.143 163.51C404.709 163.823 404.493 164.267 404.493 164.84C404.493 165.333 404.633 165.717 404.913 165.99C405.193 166.257 405.599 166.39 406.133 166.39ZM423.555 167.41C423.161 167.67 422.685 167.883 422.125 168.05C421.565 168.217 420.958 168.3 420.305 168.3C419.011 168.3 418.038 167.967 417.385 167.3C416.731 166.627 416.405 165.733 416.405 164.62V159.28H414.105V157.41H416.405V155.08L419.045 154.76V157.41H422.545L422.275 159.28H419.045V164.61C419.045 165.157 419.178 165.557 419.445 165.81C419.711 166.063 420.141 166.19 420.735 166.19C421.115 166.19 421.461 166.147 421.775 166.06C422.095 165.967 422.385 165.85 422.645 165.71L423.555 167.41ZM428.657 163.51C428.71 164.17 428.86 164.707 429.107 165.12C429.36 165.533 429.684 165.837 430.077 166.03C430.47 166.223 430.907 166.32 431.387 166.32C431.894 166.32 432.37 166.24 432.817 166.08C433.264 165.92 433.704 165.697 434.137 165.41L435.237 166.92C434.744 167.333 434.154 167.667 433.467 167.92C432.787 168.173 432.037 168.3 431.217 168.3C430.07 168.3 429.104 168.063 428.317 167.59C427.537 167.117 426.947 166.46 426.547 165.62C426.147 164.78 425.947 163.813 425.947 162.72C425.947 161.667 426.144 160.717 426.537 159.87C426.93 159.023 427.497 158.353 428.237 157.86C428.977 157.36 429.87 157.11 430.917 157.11C431.89 157.11 432.73 157.323 433.437 157.75C434.144 158.177 434.69 158.79 435.077 159.59C435.464 160.383 435.657 161.34 435.657 162.46C435.657 162.64 435.65 162.823 435.637 163.01C435.63 163.197 435.62 163.363 435.607 163.51H428.657ZM430.927 158.97C430.287 158.97 429.76 159.2 429.347 159.66C428.94 160.113 428.7 160.833 428.627 161.82H433.087C433.074 160.927 432.887 160.23 432.527 159.73C432.174 159.223 431.64 158.97 430.927 158.97ZM444.539 152.9L447.179 153.18V168H444.839L444.679 166.75C444.352 167.217 443.942 167.593 443.449 167.88C442.956 168.16 442.382 168.3 441.729 168.3C440.836 168.3 440.096 168.067 439.509 167.6C438.929 167.133 438.496 166.48 438.209 165.64C437.929 164.793 437.789 163.81 437.789 162.69C437.789 161.61 437.956 160.65 438.289 159.81C438.622 158.97 439.102 158.31 439.729 157.83C440.362 157.35 441.112 157.11 441.979 157.11C442.499 157.11 442.972 157.2 443.399 157.38C443.826 157.56 444.206 157.827 444.539 158.18V152.9ZM442.689 159.08C442.022 159.08 441.496 159.37 441.109 159.95C440.729 160.523 440.539 161.44 440.539 162.7C440.539 163.587 440.619 164.297 440.779 164.83C440.939 165.357 441.166 165.737 441.459 165.97C441.752 166.203 442.099 166.32 442.499 166.32C442.939 166.32 443.326 166.19 443.659 165.93C443.999 165.663 444.292 165.333 444.539 164.94V160.12C444.292 159.793 444.016 159.54 443.709 159.36C443.409 159.173 443.069 159.08 442.689 159.08Z" fill="url(#paint1_linear_31_9)"/>
<path d="M120.37 188.76V194H117.63V188.78L113.06 180.17H116.06L119.05 186.47L122.07 180.17H124.94L120.37 188.76ZM131.002 183.11C132.056 183.11 132.949 183.34 133.682 183.8C134.416 184.26 134.972 184.91 135.352 185.75C135.739 186.583 135.932 187.56 135.932 188.68C135.932 189.827 135.739 190.82 135.352 191.66C134.966 192.5 134.406 193.15 133.672 193.61C132.939 194.07 132.046 194.3 130.992 194.3C129.946 194.3 129.052 194.077 128.312 193.63C127.579 193.177 127.019 192.533 126.632 191.7C126.246 190.86 126.052 189.86 126.052 188.7C126.052 187.593 126.246 186.62 126.632 185.78C127.019 184.94 127.582 184.287 128.322 183.82C129.062 183.347 129.956 183.11 131.002 183.11ZM131.002 185.1C130.262 185.1 129.709 185.39 129.342 185.97C128.982 186.55 128.802 187.46 128.802 188.7C128.802 189.953 128.982 190.87 129.342 191.45C129.702 192.023 130.252 192.31 130.992 192.31C131.732 192.31 132.282 192.023 132.642 191.45C133.002 190.87 133.182 189.947 133.182 188.68C133.182 187.447 133.002 186.543 132.642 185.97C132.282 185.39 131.736 185.1 131.002 185.1ZM141.234 183.41V190.75C141.234 191.323 141.348 191.727 141.574 191.96C141.801 192.193 142.131 192.31 142.564 192.31C142.978 192.31 143.381 192.187 143.774 191.94C144.168 191.687 144.488 191.367 144.734 190.98V183.41H147.374V194H145.074L144.934 192.7C144.554 193.22 144.068 193.617 143.474 193.89C142.881 194.163 142.268 194.3 141.634 194.3C140.614 194.3 139.851 194.013 139.344 193.44C138.844 192.86 138.594 192.07 138.594 191.07V183.41H141.234ZM167.909 192.18C168.375 192.18 168.812 192.093 169.219 191.92C169.632 191.747 170.029 191.527 170.409 191.26L171.609 192.95C171.142 193.343 170.579 193.667 169.919 193.92C169.259 194.173 168.552 194.3 167.799 194.3C166.692 194.3 165.742 194.07 164.949 193.61C164.162 193.143 163.555 192.497 163.129 191.67C162.709 190.837 162.499 189.87 162.499 188.77C162.499 187.683 162.712 186.713 163.139 185.86C163.572 185 164.185 184.327 164.979 183.84C165.779 183.353 166.732 183.11 167.839 183.11C168.599 183.11 169.285 183.22 169.899 183.44C170.519 183.653 171.085 183.973 171.599 184.4L170.429 186.02C170.035 185.747 169.629 185.54 169.209 185.4C168.795 185.253 168.365 185.18 167.919 185.18C167.139 185.18 166.502 185.463 166.009 186.03C165.522 186.59 165.279 187.503 165.279 188.77C165.279 189.603 165.392 190.27 165.619 190.77C165.852 191.27 166.165 191.63 166.559 191.85C166.959 192.07 167.409 192.18 167.909 192.18ZM183.021 191.21C183.021 191.617 183.081 191.913 183.201 192.1C183.321 192.28 183.514 192.417 183.781 192.51L183.211 194.28C182.644 194.22 182.161 194.08 181.761 193.86C181.368 193.633 181.064 193.297 180.851 192.85C180.451 193.337 179.944 193.7 179.331 193.94C178.724 194.18 178.088 194.3 177.421 194.3C176.341 194.3 175.484 193.993 174.851 193.38C174.218 192.767 173.901 191.97 173.901 190.99C173.901 189.863 174.341 188.997 175.221 188.39C176.108 187.777 177.361 187.47 178.981 187.47H180.461V186.9C180.461 186.273 180.268 185.82 179.881 185.54C179.494 185.253 178.938 185.11 178.211 185.11C177.871 185.11 177.444 185.157 176.931 185.25C176.424 185.337 175.901 185.473 175.361 185.66L174.731 183.85C175.404 183.597 176.081 183.41 176.761 183.29C177.448 183.17 178.071 183.11 178.631 183.11C180.118 183.11 181.221 183.427 181.941 184.06C182.661 184.687 183.021 185.577 183.021 186.73V191.21ZM178.281 192.39C178.681 192.39 179.084 192.277 179.491 192.05C179.904 191.823 180.228 191.507 180.461 191.1V189.04H179.421C178.441 189.04 177.731 189.197 177.291 189.51C176.858 189.823 176.641 190.267 176.641 190.84C176.641 191.333 176.781 191.717 177.061 191.99C177.341 192.257 177.748 192.39 178.281 192.39ZM186.563 194V183.41H188.863L189.053 184.72C189.506 184.187 190.016 183.787 190.583 183.52C191.15 183.247 191.76 183.11 192.413 183.11C193.366 183.11 194.093 183.387 194.593 183.94C195.093 184.487 195.343 185.257 195.343 186.25V194H192.703V187.28C192.703 186.747 192.67 186.32 192.603 186C192.536 185.673 192.41 185.44 192.223 185.3C192.036 185.153 191.766 185.08 191.413 185.08C191.126 185.08 190.85 185.143 190.583 185.27C190.323 185.397 190.076 185.567 189.843 185.78C189.616 185.993 189.403 186.23 189.203 186.49V194H186.563ZM210.548 194V183.41H212.848L213.038 184.72C213.491 184.187 214.001 183.787 214.568 183.52C215.134 183.247 215.744 183.11 216.398 183.11C217.351 183.11 218.078 183.387 218.578 183.94C219.078 184.487 219.328 185.257 219.328 186.25V194H216.688V187.28C216.688 186.747 216.654 186.32 216.588 186C216.521 185.673 216.394 185.44 216.208 185.3C216.021 185.153 215.751 185.08 215.398 185.08C215.111 185.08 214.834 185.143 214.568 185.27C214.308 185.397 214.061 185.567 213.828 185.78C213.601 185.993 213.388 186.23 213.188 186.49V194H210.548ZM226.94 183.11C227.993 183.11 228.886 183.34 229.62 183.8C230.353 184.26 230.91 184.91 231.29 185.75C231.676 186.583 231.87 187.56 231.87 188.68C231.87 189.827 231.676 190.82 231.29 191.66C230.903 192.5 230.343 193.15 229.61 193.61C228.876 194.07 227.983 194.3 226.93 194.3C225.883 194.3 224.99 194.077 224.25 193.63C223.516 193.177 222.956 192.533 222.57 191.7C222.183 190.86 221.99 189.86 221.99 188.7C221.99 187.593 222.183 186.62 222.57 185.78C222.956 184.94 223.52 184.287 224.26 183.82C225 183.347 225.893 183.11 226.94 183.11ZM226.94 185.1C226.2 185.1 225.646 185.39 225.28 185.97C224.92 186.55 224.74 187.46 224.74 188.7C224.74 189.953 224.92 190.87 225.28 191.45C225.64 192.023 226.19 192.31 226.93 192.31C227.67 192.31 228.22 192.023 228.58 191.45C228.94 190.87 229.12 189.947 229.12 188.68C229.12 187.447 228.94 186.543 228.58 185.97C228.22 185.39 227.673 185.1 226.94 185.1ZM243.132 194H240.032L238.962 186.65L237.822 194H234.782L233.092 183.41H235.572L236.492 192.36L237.802 184.75H240.232L241.432 192.36L242.372 183.41H244.752L243.132 194ZM263.846 192.18C264.313 192.18 264.75 192.093 265.156 191.92C265.57 191.747 265.966 191.527 266.346 191.26L267.546 192.95C267.08 193.343 266.516 193.667 265.856 193.92C265.196 194.173 264.49 194.3 263.736 194.3C262.63 194.3 261.68 194.07 260.886 193.61C260.1 193.143 259.493 192.497 259.066 191.67C258.646 190.837 258.436 189.87 258.436 188.77C258.436 187.683 258.65 186.713 259.076 185.86C259.51 185 260.123 184.327 260.916 183.84C261.716 183.353 262.67 183.11 263.776 183.11C264.536 183.11 265.223 183.22 265.836 183.44C266.456 183.653 267.023 183.973 267.536 184.4L266.366 186.02C265.973 185.747 265.566 185.54 265.146 185.4C264.733 185.253 264.303 185.18 263.856 185.18C263.076 185.18 262.44 185.463 261.946 186.03C261.46 186.59 261.216 187.503 261.216 188.77C261.216 189.603 261.33 190.27 261.556 190.77C261.79 191.27 262.103 191.63 262.496 191.85C262.896 192.07 263.346 192.18 263.846 192.18ZM275.548 179.18V190.92C275.548 191.38 275.682 191.707 275.948 191.9C276.222 192.093 276.588 192.19 277.048 192.19C277.335 192.19 277.612 192.16 277.878 192.1C278.145 192.033 278.398 191.953 278.638 191.86L279.288 193.66C278.955 193.827 278.548 193.973 278.068 194.1C277.595 194.233 277.045 194.3 276.418 194.3C275.265 194.3 274.392 193.97 273.798 193.31C273.205 192.65 272.908 191.76 272.908 190.64V181.05H269.738V179.18H275.548ZM286.901 183.11C287.954 183.11 288.847 183.34 289.581 183.8C290.314 184.26 290.871 184.91 291.251 185.75C291.637 186.583 291.831 187.56 291.831 188.68C291.831 189.827 291.637 190.82 291.251 191.66C290.864 192.5 290.304 193.15 289.571 193.61C288.837 194.07 287.944 194.3 286.891 194.3C285.844 194.3 284.951 194.077 284.211 193.63C283.477 193.177 282.917 192.533 282.531 191.7C282.144 190.86 281.951 189.86 281.951 188.7C281.951 187.593 282.144 186.62 282.531 185.78C282.917 184.94 283.481 184.287 284.221 183.82C284.961 183.347 285.854 183.11 286.901 183.11ZM286.901 185.1C286.161 185.1 285.607 185.39 285.241 185.97C284.881 186.55 284.701 187.46 284.701 188.7C284.701 189.953 284.881 190.87 285.241 191.45C285.601 192.023 286.151 192.31 286.891 192.31C287.631 192.31 288.181 192.023 288.541 191.45C288.901 190.87 289.081 189.947 289.081 188.68C289.081 187.447 288.901 186.543 288.541 185.97C288.181 185.39 287.634 185.1 286.901 185.1ZM298.523 192.35C299.143 192.35 299.639 192.243 300.013 192.03C300.393 191.81 300.583 191.503 300.583 191.11C300.583 190.85 300.519 190.63 300.393 190.45C300.273 190.27 300.033 190.103 299.673 189.95C299.313 189.79 298.773 189.613 298.053 189.42C297.373 189.247 296.776 189.033 296.263 188.78C295.756 188.52 295.359 188.187 295.073 187.78C294.793 187.373 294.653 186.86 294.653 186.24C294.653 185.62 294.826 185.077 295.173 184.61C295.519 184.137 296.019 183.77 296.673 183.51C297.333 183.243 298.126 183.11 299.053 183.11C299.959 183.11 300.753 183.23 301.433 183.47C302.113 183.703 302.696 183.997 303.183 184.35L302.103 185.96C301.676 185.687 301.213 185.467 300.713 185.3C300.219 185.127 299.686 185.04 299.113 185.04C298.493 185.04 298.039 185.13 297.753 185.31C297.473 185.49 297.333 185.74 297.333 186.06C297.333 186.287 297.403 186.48 297.543 186.64C297.689 186.793 297.949 186.943 298.323 187.09C298.703 187.23 299.243 187.4 299.943 187.6C300.629 187.787 301.226 188.007 301.733 188.26C302.246 188.513 302.643 188.85 302.923 189.27C303.203 189.69 303.343 190.24 303.343 190.92C303.343 191.687 303.119 192.32 302.673 192.82C302.226 193.32 301.636 193.693 300.903 193.94C300.176 194.18 299.386 194.3 298.533 194.3C297.533 194.3 296.659 194.157 295.913 193.87C295.166 193.583 294.533 193.213 294.013 192.76L295.383 191.22C295.796 191.547 296.266 191.817 296.793 192.03C297.326 192.243 297.903 192.35 298.523 192.35ZM308.735 189.51C308.788 190.17 308.938 190.707 309.185 191.12C309.438 191.533 309.762 191.837 310.155 192.03C310.548 192.223 310.985 192.32 311.465 192.32C311.972 192.32 312.448 192.24 312.895 192.08C313.342 191.92 313.782 191.697 314.215 191.41L315.315 192.92C314.822 193.333 314.232 193.667 313.545 193.92C312.865 194.173 312.115 194.3 311.295 194.3C310.148 194.3 309.182 194.063 308.395 193.59C307.615 193.117 307.025 192.46 306.625 191.62C306.225 190.78 306.025 189.813 306.025 188.72C306.025 187.667 306.222 186.717 306.615 185.87C307.008 185.023 307.575 184.353 308.315 183.86C309.055 183.36 309.948 183.11 310.995 183.11C311.968 183.11 312.808 183.323 313.515 183.75C314.222 184.177 314.768 184.79 315.155 185.59C315.542 186.383 315.735 187.34 315.735 188.46C315.735 188.64 315.728 188.823 315.715 189.01C315.708 189.197 315.698 189.363 315.685 189.51H308.735ZM311.005 184.97C310.365 184.97 309.838 185.2 309.425 185.66C309.018 186.113 308.778 186.833 308.705 187.82H313.165C313.152 186.927 312.965 186.23 312.605 185.73C312.252 185.223 311.718 184.97 311.005 184.97ZM339.609 193.41C339.216 193.67 338.739 193.883 338.179 194.05C337.619 194.217 337.013 194.3 336.359 194.3C335.066 194.3 334.093 193.967 333.439 193.3C332.786 192.627 332.459 191.733 332.459 190.62V185.28H330.159V183.41H332.459V181.08L335.099 180.76V183.41H338.599L338.329 185.28H335.099V190.61C335.099 191.157 335.233 191.557 335.499 191.81C335.766 192.063 336.196 192.19 336.789 192.19C337.169 192.19 337.516 192.147 337.829 192.06C338.149 191.967 338.439 191.85 338.699 191.71L339.609 193.41ZM345.102 178.93V184.6C345.542 184.1 346.035 183.727 346.582 183.48C347.135 183.233 347.712 183.11 348.312 183.11C349.285 183.11 350.015 183.387 350.502 183.94C350.995 184.487 351.242 185.257 351.242 186.25V194H348.602V186.84C348.602 186.2 348.502 185.747 348.302 185.48C348.108 185.213 347.775 185.08 347.302 185.08C347.022 185.08 346.748 185.147 346.482 185.28C346.222 185.407 345.975 185.58 345.742 185.8C345.515 186.02 345.302 186.267 345.102 186.54V194H342.462V179.19L345.102 178.93ZM360.544 183.41V192.13H363.334V194H354.804V192.13H357.904V185.28H354.904V183.41H360.544ZM358.834 178.07C359.32 178.07 359.714 178.22 360.014 178.52C360.32 178.82 360.474 179.193 360.474 179.64C360.474 180.087 360.32 180.463 360.014 180.77C359.714 181.07 359.32 181.22 358.834 181.22C358.347 181.22 357.95 181.07 357.644 180.77C357.337 180.463 357.184 180.087 357.184 179.64C357.184 179.193 357.337 178.82 357.644 178.52C357.95 178.22 358.347 178.07 358.834 178.07ZM370.476 192.35C371.096 192.35 371.593 192.243 371.966 192.03C372.346 191.81 372.536 191.503 372.536 191.11C372.536 190.85 372.473 190.63 372.346 190.45C372.226 190.27 371.986 190.103 371.626 189.95C371.266 189.79 370.726 189.613 370.006 189.42C369.326 189.247 368.729 189.033 368.216 188.78C367.709 188.52 367.313 188.187 367.026 187.78C366.746 187.373 366.606 186.86 366.606 186.24C366.606 185.62 366.779 185.077 367.126 184.61C367.473 184.137 367.973 183.77 368.626 183.51C369.286 183.243 370.079 183.11 371.006 183.11C371.913 183.11 372.706 183.23 373.386 183.47C374.066 183.703 374.649 183.997 375.136 184.35L374.056 185.96C373.629 185.687 373.166 185.467 372.666 185.3C372.173 185.127 371.639 185.04 371.066 185.04C370.446 185.04 369.993 185.13 369.706 185.31C369.426 185.49 369.286 185.74 369.286 186.06C369.286 186.287 369.356 186.48 369.496 186.64C369.643 186.793 369.903 186.943 370.276 187.09C370.656 187.23 371.196 187.4 371.896 187.6C372.583 187.787 373.179 188.007 373.686 188.26C374.199 188.513 374.596 188.85 374.876 189.27C375.156 189.69 375.296 190.24 375.296 190.92C375.296 191.687 375.073 192.32 374.626 192.82C374.179 193.32 373.589 193.693 372.856 193.94C372.129 194.18 371.339 194.3 370.486 194.3C369.486 194.3 368.613 194.157 367.866 193.87C367.119 193.583 366.486 193.213 365.966 192.76L367.336 191.22C367.749 191.547 368.219 191.817 368.746 192.03C369.279 192.243 369.856 192.35 370.476 192.35ZM399.57 193.41C399.177 193.67 398.7 193.883 398.14 194.05C397.58 194.217 396.974 194.3 396.32 194.3C395.027 194.3 394.054 193.967 393.4 193.3C392.747 192.627 392.42 191.733 392.42 190.62V185.28H390.12V183.41H392.42V181.08L395.06 180.76V183.41H398.56L398.29 185.28H395.06V190.61C395.06 191.157 395.194 191.557 395.46 191.81C395.727 192.063 396.157 192.19 396.75 192.19C397.13 192.19 397.477 192.147 397.79 192.06C398.11 191.967 398.4 191.85 398.66 191.71L399.57 193.41ZM410.873 191.21C410.873 191.617 410.933 191.913 411.053 192.1C411.173 192.28 411.366 192.417 411.633 192.51L411.063 194.28C410.496 194.22 410.013 194.08 409.613 193.86C409.219 193.633 408.916 193.297 408.703 192.85C408.303 193.337 407.796 193.7 407.183 193.94C406.576 194.18 405.939 194.3 405.273 194.3C404.193 194.3 403.336 193.993 402.703 193.38C402.069 192.767 401.753 191.97 401.753 190.99C401.753 189.863 402.193 188.997 403.073 188.39C403.959 187.777 405.213 187.47 406.833 187.47H408.313V186.9C408.313 186.273 408.119 185.82 407.733 185.54C407.346 185.253 406.789 185.11 406.063 185.11C405.723 185.11 405.296 185.157 404.783 185.25C404.276 185.337 403.753 185.473 403.213 185.66L402.583 183.85C403.256 183.597 403.933 183.41 404.613 183.29C405.299 183.17 405.923 183.11 406.483 183.11C407.969 183.11 409.073 183.427 409.793 184.06C410.513 184.687 410.873 185.577 410.873 186.73V191.21ZM406.133 192.39C406.533 192.39 406.936 192.277 407.343 192.05C407.756 191.823 408.079 191.507 408.313 191.1V189.04H407.273C406.293 189.04 405.583 189.197 405.143 189.51C404.709 189.823 404.493 190.267 404.493 190.84C404.493 191.333 404.633 191.717 404.913 191.99C405.193 192.257 405.599 192.39 406.133 192.39ZM417.055 184.6C417.408 184.133 417.825 183.77 418.305 183.51C418.791 183.243 419.315 183.11 419.875 183.11C420.801 183.11 421.551 183.34 422.125 183.8C422.705 184.253 423.128 184.897 423.395 185.73C423.668 186.563 423.805 187.547 423.805 188.68C423.805 189.767 423.645 190.733 423.325 191.58C423.005 192.427 422.528 193.093 421.895 193.58C421.268 194.06 420.498 194.3 419.585 194.3C418.438 194.3 417.535 193.863 416.875 192.99L416.755 194H414.415V179.18L417.055 178.9V184.6ZM418.905 192.33C419.578 192.33 420.105 192.043 420.485 191.47C420.865 190.897 421.055 189.977 421.055 188.71C421.055 187.817 420.975 187.107 420.815 186.58C420.661 186.047 420.438 185.667 420.145 185.44C419.858 185.207 419.511 185.09 419.105 185.09C418.665 185.09 418.275 185.223 417.935 185.49C417.601 185.757 417.308 186.087 417.055 186.48V191.22C417.281 191.573 417.548 191.847 417.855 192.04C418.161 192.233 418.511 192.33 418.905 192.33Z" fill="white"/>
<path d="M119.96 250.93V253.92C120.767 253.993 121.493 254.177 122.14 254.47C122.787 254.757 123.34 255.103 123.8 255.51L122.44 256.92C122.067 256.6 121.67 256.35 121.25 256.17C120.83 255.99 120.4 255.88 119.96 255.84V259.7C120.773 259.973 121.483 260.293 122.09 260.66C122.703 261.02 123.177 261.47 123.51 262.01C123.85 262.55 124.02 263.223 124.02 264.03C124.02 264.73 123.863 265.377 123.55 265.97C123.243 266.563 122.787 267.06 122.18 267.46C121.58 267.853 120.84 268.107 119.96 268.22V271.18H118.44V268.28C117.467 268.213 116.607 267.997 115.86 267.63C115.113 267.257 114.5 266.843 114.02 266.39L115.37 264.86C115.81 265.26 116.277 265.587 116.77 265.84C117.27 266.087 117.827 266.233 118.44 266.28V261.63C117.087 261.19 116.097 260.653 115.47 260.02C114.85 259.387 114.54 258.6 114.54 257.66C114.54 257 114.693 256.403 115 255.87C115.307 255.337 115.75 254.9 116.33 254.56C116.91 254.22 117.613 254.007 118.44 253.92V250.93H119.96ZM119.96 262.21V266.21C120.967 265.99 121.47 265.347 121.47 264.28C121.47 263.827 121.363 263.437 121.15 263.11C120.943 262.783 120.547 262.483 119.96 262.21ZM118.44 255.87C117.98 255.943 117.623 256.12 117.37 256.4C117.123 256.673 117 257.01 117 257.41C117 257.79 117.09 258.11 117.27 258.37C117.45 258.63 117.84 258.89 118.44 259.15V255.87Z" fill="#5433FF"/>
<path d="M190.593 266.35C191.213 266.35 191.71 266.243 192.083 266.03C192.463 265.81 192.653 265.503 192.653 265.11C192.653 264.85 192.59 264.63 192.463 264.45C192.343 264.27 192.103 264.103 191.743 263.95C191.383 263.79 190.843 263.613 190.123 263.42C189.443 263.247 188.846 263.033 188.333 262.78C187.826 262.52 187.43 262.187 187.143 261.78C186.863 261.373 186.723 260.86 186.723 260.24C186.723 259.62 186.896 259.077 187.243 258.61C187.59 258.137 188.09 257.77 188.743 257.51C189.403 257.243 190.196 257.11 191.123 257.11C192.03 257.11 192.823 257.23 193.503 257.47C194.183 257.703 194.766 257.997 195.253 258.35L194.173 259.96C193.746 259.687 193.283 259.467 192.783 259.3C192.29 259.127 191.756 259.04 191.183 259.04C190.563 259.04 190.11 259.13 189.823 259.31C189.543 259.49 189.403 259.74 189.403 260.06C189.403 260.287 189.473 260.48 189.613 260.64C189.76 260.793 190.02 260.943 190.393 261.09C190.773 261.23 191.313 261.4 192.013 261.6C192.7 261.787 193.296 262.007 193.803 262.26C194.316 262.513 194.713 262.85 194.993 263.27C195.273 263.69 195.413 264.24 195.413 264.92C195.413 265.687 195.19 266.32 194.743 266.82C194.296 267.32 193.706 267.693 192.973 267.94C192.246 268.18 191.456 268.3 190.603 268.3C189.603 268.3 188.73 268.157 187.983 267.87C187.236 267.583 186.603 267.213 186.083 266.76L187.453 265.22C187.866 265.547 188.336 265.817 188.863 266.03C189.396 266.243 189.973 266.35 190.593 266.35ZM198.555 268V257.41H200.855L201.045 258.72C201.499 258.187 202.009 257.787 202.575 257.52C203.142 257.247 203.752 257.11 204.405 257.11C205.359 257.11 206.085 257.387 206.585 257.94C207.085 258.487 207.335 259.257 207.335 260.25V268H204.695V261.28C204.695 260.747 204.662 260.32 204.595 260C204.529 259.673 204.402 259.44 204.215 259.3C204.029 259.153 203.759 259.08 203.405 259.08C203.119 259.08 202.842 259.143 202.575 259.27C202.315 259.397 202.069 259.567 201.835 259.78C201.609 259.993 201.395 260.23 201.195 260.49V268H198.555ZM216.638 257.41V266.13H219.428V268H210.898V266.13H213.998V259.28H210.998V257.41H216.638ZM214.928 252.07C215.414 252.07 215.808 252.22 216.108 252.52C216.414 252.82 216.568 253.193 216.568 253.64C216.568 254.087 216.414 254.463 216.108 254.77C215.808 255.07 215.414 255.22 214.928 255.22C214.441 255.22 214.044 255.07 213.738 254.77C213.431 254.463 213.278 254.087 213.278 253.64C213.278 253.193 213.431 252.82 213.738 252.52C214.044 252.22 214.441 252.07 214.928 252.07ZM228.01 257.11C228.943 257.11 229.69 257.34 230.25 257.8C230.816 258.253 231.226 258.897 231.48 259.73C231.74 260.563 231.87 261.547 231.87 262.68C231.87 263.767 231.713 264.733 231.4 265.58C231.086 266.427 230.626 267.093 230.02 267.58C229.42 268.06 228.68 268.3 227.8 268.3C226.72 268.3 225.846 267.917 225.18 267.15V272.08L222.54 272.36V257.41H224.86L225 258.7C225.42 258.153 225.89 257.753 226.41 257.5C226.93 257.24 227.463 257.11 228.01 257.11ZM227.24 259.09C226.793 259.09 226.4 259.223 226.06 259.49C225.726 259.757 225.433 260.087 225.18 260.48V265.22C225.42 265.58 225.693 265.85 226 266.03C226.306 266.21 226.653 266.3 227.04 266.3C227.713 266.3 228.226 266.02 228.58 265.46C228.94 264.893 229.12 263.977 229.12 262.71C229.12 261.817 229.046 261.107 228.9 260.58C228.76 260.047 228.55 259.667 228.27 259.44C227.99 259.207 227.646 259.09 227.24 259.09ZM239.572 253.18V264.92C239.572 265.38 239.705 265.707 239.972 265.9C240.245 266.093 240.612 266.19 241.072 266.19C241.359 266.19 241.635 266.16 241.902 266.1C242.169 266.033 242.422 265.953 242.662 265.86L243.312 267.66C242.979 267.827 242.572 267.973 242.092 268.1C241.619 268.233 241.069 268.3 240.442 268.3C239.289 268.3 238.415 267.97 237.822 267.31C237.229 266.65 236.932 265.76 236.932 264.64V255.05H233.762V253.18H239.572ZM252.614 257.41V266.13H255.404V268H246.874V266.13H249.974V259.28H246.974V257.41H252.614ZM250.904 252.07C251.391 252.07 251.784 252.22 252.084 252.52C252.391 252.82 252.544 253.193 252.544 253.64C252.544 254.087 252.391 254.463 252.084 254.77C251.784 255.07 251.391 255.22 250.904 255.22C250.417 255.22 250.021 255.07 249.714 254.77C249.407 254.463 249.254 254.087 249.254 253.64C249.254 253.193 249.407 252.82 249.714 252.52C250.021 252.22 250.417 252.07 250.904 252.07ZM279.108 268H276.008L274.938 260.65L273.798 268H270.758L269.068 257.41H271.548L272.468 266.36L273.778 258.75H276.208L277.408 266.36L278.348 257.41H280.728L279.108 268ZM285.141 252.93V258.6C285.581 258.1 286.074 257.727 286.621 257.48C287.174 257.233 287.751 257.11 288.351 257.11C289.324 257.11 290.054 257.387 290.541 257.94C291.034 258.487 291.281 259.257 291.281 260.25V268H288.641V260.84C288.641 260.2 288.541 259.747 288.341 259.48C288.147 259.213 287.814 259.08 287.341 259.08C287.061 259.08 286.787 259.147 286.521 259.28C286.261 259.407 286.014 259.58 285.781 259.8C285.554 260.02 285.341 260.267 285.141 260.54V268H282.501V253.19L285.141 252.93ZM298.893 257.11C299.946 257.11 300.839 257.34 301.573 257.8C302.306 258.26 302.863 258.91 303.243 259.75C303.629 260.583 303.823 261.56 303.823 262.68C303.823 263.827 303.629 264.82 303.243 265.66C302.856 266.5 302.296 267.15 301.563 267.61C300.829 268.07 299.936 268.3 298.883 268.3C297.836 268.3 296.943 268.077 296.203 267.63C295.469 267.177 294.909 266.533 294.523 265.7C294.136 264.86 293.943 263.86 293.943 262.7C293.943 261.593 294.136 260.62 294.523 259.78C294.909 258.94 295.473 258.287 296.213 257.82C296.953 257.347 297.846 257.11 298.893 257.11ZM298.893 259.1C298.153 259.1 297.599 259.39 297.233 259.97C296.873 260.55 296.693 261.46 296.693 262.7C296.693 263.953 296.873 264.87 297.233 265.45C297.593 266.023 298.143 266.31 298.883 266.31C299.623 266.31 300.173 266.023 300.533 265.45C300.893 264.87 301.073 263.947 301.073 262.68C301.073 261.447 300.893 260.543 300.533 259.97C300.173 259.39 299.626 259.1 298.893 259.1ZM314.935 265.21C314.935 265.617 314.995 265.913 315.115 266.1C315.235 266.28 315.428 266.417 315.695 266.51L315.125 268.28C314.558 268.22 314.075 268.08 313.675 267.86C313.282 267.633 312.978 267.297 312.765 266.85C312.365 267.337 311.858 267.7 311.245 267.94C310.638 268.18 310.002 268.3 309.335 268.3C308.255 268.3 307.398 267.993 306.765 267.38C306.132 266.767 305.815 265.97 305.815 264.99C305.815 263.863 306.255 262.997 307.135 262.39C308.022 261.777 309.275 261.47 310.895 261.47H312.375V260.9C312.375 260.273 312.182 259.82 311.795 259.54C311.408 259.253 310.852 259.11 310.125 259.11C309.785 259.11 309.358 259.157 308.845 259.25C308.338 259.337 307.815 259.473 307.275 259.66L306.645 257.85C307.318 257.597 307.995 257.41 308.675 257.29C309.362 257.17 309.985 257.11 310.545 257.11C312.032 257.11 313.135 257.427 313.855 258.06C314.575 258.687 314.935 259.577 314.935 260.73V265.21ZM310.195 266.39C310.595 266.39 310.998 266.277 311.405 266.05C311.818 265.823 312.142 265.507 312.375 265.1V263.04H311.335C310.355 263.04 309.645 263.197 309.205 263.51C308.772 263.823 308.555 264.267 308.555 264.84C308.555 265.333 308.695 265.717 308.975 265.99C309.255 266.257 309.662 266.39 310.195 266.39ZM326.007 257.11C326.461 257.11 326.847 257.207 327.167 257.4C327.487 257.587 327.734 257.903 327.907 258.35C328.081 258.79 328.167 259.39 328.167 260.15V268H325.867V260.48C325.867 260 325.827 259.66 325.747 259.46C325.674 259.26 325.504 259.16 325.237 259.16C325.017 259.16 324.794 259.227 324.567 259.36C324.347 259.487 324.117 259.717 323.877 260.05V268H321.887V260.48C321.887 260 321.847 259.66 321.767 259.46C321.694 259.26 321.524 259.16 321.257 259.16C321.031 259.16 320.807 259.227 320.587 259.36C320.367 259.487 320.137 259.717 319.897 260.05V268H317.567V257.41H319.537L319.707 258.51C320.021 258.07 320.351 257.727 320.697 257.48C321.044 257.233 321.461 257.11 321.947 257.11C322.347 257.11 322.701 257.21 323.007 257.41C323.321 257.603 323.544 257.937 323.677 258.41C323.984 258.023 324.327 257.71 324.707 257.47C325.087 257.23 325.521 257.11 326.007 257.11ZM336.559 257.41V266.13H339.349V268H330.819V266.13H333.919V259.28H330.919V257.41H336.559ZM334.849 252.07C335.336 252.07 335.729 252.22 336.029 252.52C336.336 252.82 336.489 253.193 336.489 253.64C336.489 254.087 336.336 254.463 336.029 254.77C335.729 255.07 335.336 255.22 334.849 255.22C334.363 255.22 333.966 255.07 333.659 254.77C333.353 254.463 333.199 254.087 333.199 253.64C333.199 253.193 333.353 252.82 333.659 252.52C333.966 252.22 334.363 252.07 334.849 252.07Z" fill="url(#paint2_linear_31_9)"/>
<path d="M148.044 258.26C148.044 258.927 147.911 259.51 147.644 260.01C147.384 260.51 147.028 260.93 146.574 261.27C146.128 261.61 145.624 261.873 145.064 262.06L148.854 268H145.714L142.444 262.49H141.184V268H138.454V254.17H142.524C144.344 254.17 145.718 254.507 146.644 255.18C147.578 255.853 148.044 256.88 148.044 258.26ZM145.204 258.26C145.204 257.513 144.988 256.977 144.554 256.65C144.121 256.317 143.468 256.15 142.594 256.15H141.184V260.55H142.684C143.491 260.55 144.111 260.37 144.544 260.01C144.984 259.65 145.204 259.067 145.204 258.26ZM153.227 257.41V264.75C153.227 265.323 153.34 265.727 153.567 265.96C153.793 266.193 154.123 266.31 154.557 266.31C154.97 266.31 155.373 266.187 155.767 265.94C156.16 265.687 156.48 265.367 156.727 264.98V257.41H159.367V268H157.067L156.927 266.7C156.547 267.22 156.06 267.617 155.467 267.89C154.873 268.163 154.26 268.3 153.627 268.3C152.607 268.3 151.843 268.013 151.337 267.44C150.837 266.86 150.587 266.07 150.587 265.07V257.41H153.227ZM162.579 268V257.41H164.879L165.069 258.72C165.522 258.187 166.032 257.787 166.599 257.52C167.165 257.247 167.775 257.11 168.429 257.11C169.382 257.11 170.109 257.387 170.609 257.94C171.109 258.487 171.359 259.257 171.359 260.25V268H168.719V261.28C168.719 260.747 168.685 260.32 168.619 260C168.552 259.673 168.425 259.44 168.239 259.3C168.052 259.153 167.782 259.08 167.429 259.08C167.142 259.08 166.865 259.143 166.599 259.27C166.339 259.397 166.092 259.567 165.859 259.78C165.632 259.993 165.419 260.23 165.219 260.49V268H162.579Z" fill="white"/>
<path d="M120.34 282.32V294H117.61V282.32H113.57V280.17H124.5L124.22 282.32H120.34ZM131.002 283.11C132.056 283.11 132.949 283.34 133.682 283.8C134.416 284.26 134.972 284.91 135.352 285.75C135.739 286.583 135.932 287.56 135.932 288.68C135.932 289.827 135.739 290.82 135.352 291.66C134.966 292.5 134.406 293.15 133.672 293.61C132.939 294.07 132.046 294.3 130.992 294.3C129.946 294.3 129.052 294.077 128.312 293.63C127.579 293.177 127.019 292.533 126.632 291.7C126.246 290.86 126.052 289.86 126.052 288.7C126.052 287.593 126.246 286.62 126.632 285.78C127.019 284.94 127.582 284.287 128.322 283.82C129.062 283.347 129.956 283.11 131.002 283.11ZM131.002 285.1C130.262 285.1 129.709 285.39 129.342 285.97C128.982 286.55 128.802 287.46 128.802 288.7C128.802 289.953 128.982 290.87 129.342 291.45C129.702 292.023 130.252 292.31 130.992 292.31C131.732 292.31 132.282 292.023 132.642 291.45C133.002 290.87 133.182 289.947 133.182 288.68C133.182 287.447 133.002 286.543 132.642 285.97C132.282 285.39 131.736 285.1 131.002 285.1ZM160.177 283.41L156.537 294H153.437L149.777 283.41H152.617L155.027 291.89L157.487 283.41H160.177ZM164.829 289.51C164.882 290.17 165.032 290.707 165.279 291.12C165.532 291.533 165.855 291.837 166.249 292.03C166.642 292.223 167.079 292.32 167.559 292.32C168.065 292.32 168.542 292.24 168.989 292.08C169.435 291.92 169.875 291.697 170.309 291.41L171.409 292.92C170.915 293.333 170.325 293.667 169.639 293.92C168.959 294.173 168.209 294.3 167.389 294.3C166.242 294.3 165.275 294.063 164.489 293.59C163.709 293.117 163.119 292.46 162.719 291.62C162.319 290.78 162.119 289.813 162.119 288.72C162.119 287.667 162.315 286.717 162.709 285.87C163.102 285.023 163.669 284.353 164.409 283.86C165.149 283.36 166.042 283.11 167.089 283.11C168.062 283.11 168.902 283.323 169.609 283.75C170.315 284.177 170.862 284.79 171.249 285.59C171.635 286.383 171.829 287.34 171.829 288.46C171.829 288.64 171.822 288.823 171.809 289.01C171.802 289.197 171.792 289.363 171.779 289.51H164.829ZM167.099 284.97C166.459 284.97 165.932 285.2 165.519 285.66C165.112 286.113 164.872 286.833 164.799 287.82H169.259C169.245 286.927 169.059 286.23 168.699 285.73C168.345 285.223 167.812 284.97 167.099 284.97ZM174.671 294V292.17H176.161V285.23H174.671V283.41H178.171L178.661 285.84C179.048 284.94 179.534 284.263 180.121 283.81C180.708 283.35 181.444 283.12 182.331 283.12C182.671 283.12 182.971 283.147 183.231 283.2C183.498 283.253 183.751 283.323 183.991 283.41L183.201 285.63C182.994 285.577 182.798 285.537 182.611 285.51C182.424 285.477 182.214 285.46 181.981 285.46C181.248 285.46 180.608 285.747 180.061 286.32C179.521 286.887 179.101 287.657 178.801 288.63V292.17H180.911V294H174.671ZM181.761 287.54V284.73L182.121 283.41H183.991L183.521 287.54H181.761ZM192.653 283.41V292.13H195.443V294H186.913V292.13H190.013V285.28H187.013V283.41H192.653ZM190.943 278.07C191.43 278.07 191.823 278.22 192.123 278.52C192.43 278.82 192.583 279.193 192.583 279.64C192.583 280.087 192.43 280.463 192.123 280.77C191.823 281.07 191.43 281.22 190.943 281.22C190.456 281.22 190.06 281.07 189.753 280.77C189.446 280.463 189.293 280.087 189.293 279.64C189.293 279.193 189.446 278.82 189.753 278.52C190.06 278.22 190.456 278.07 190.943 278.07ZM205.125 278.9C205.832 278.9 206.459 278.957 207.005 279.07C207.552 279.183 208.049 279.337 208.495 279.53L207.735 281.31C207.382 281.163 207.012 281.057 206.625 280.99C206.239 280.923 205.852 280.89 205.465 280.89C204.799 280.89 204.312 281.017 204.005 281.27C203.705 281.517 203.555 281.913 203.555 282.46V284.13H207.055L206.765 286.02H203.555V294H200.925V286.02H198.595V284.13H200.925V282.4C200.925 281.713 201.092 281.11 201.425 280.59C201.759 280.063 202.239 279.65 202.865 279.35C203.499 279.05 204.252 278.9 205.125 278.9ZM220.138 283.41L216.548 294.02C216.254 294.887 215.874 295.63 215.408 296.25C214.941 296.87 214.351 297.36 213.638 297.72C212.931 298.087 212.064 298.303 211.038 298.37L210.708 296.46C211.421 296.36 211.991 296.21 212.418 296.01C212.844 295.81 213.184 295.547 213.438 295.22C213.698 294.893 213.921 294.487 214.108 294H213.208L209.738 283.41H212.528L214.928 292.24L217.428 283.41H220.138ZM244.122 283.41L240.532 294.02C240.239 294.887 239.859 295.63 239.392 296.25C238.925 296.87 238.335 297.36 237.622 297.72C236.915 298.087 236.049 298.303 235.022 298.37L234.692 296.46C235.405 296.36 235.975 296.21 236.402 296.01C236.829 295.81 237.169 295.547 237.422 295.22C237.682 294.893 237.905 294.487 238.092 294H237.192L233.722 283.41H236.512L238.912 292.24L241.412 283.41H244.122ZM250.924 283.11C251.977 283.11 252.871 283.34 253.604 283.8C254.337 284.26 254.894 284.91 255.274 285.75C255.661 286.583 255.854 287.56 255.854 288.68C255.854 289.827 255.661 290.82 255.274 291.66C254.887 292.5 254.327 293.15 253.594 293.61C252.861 294.07 251.967 294.3 250.914 294.3C249.867 294.3 248.974 294.077 248.234 293.63C247.501 293.177 246.941 292.533 246.554 291.7C246.167 290.86 245.974 289.86 245.974 288.7C245.974 287.593 246.167 286.62 246.554 285.78C246.941 284.94 247.504 284.287 248.244 283.82C248.984 283.347 249.877 283.11 250.924 283.11ZM250.924 285.1C250.184 285.1 249.631 285.39 249.264 285.97C248.904 286.55 248.724 287.46 248.724 288.7C248.724 289.953 248.904 290.87 249.264 291.45C249.624 292.023 250.174 292.31 250.914 292.31C251.654 292.31 252.204 292.023 252.564 291.45C252.924 290.87 253.104 289.947 253.104 288.68C253.104 287.447 252.924 286.543 252.564 285.97C252.204 285.39 251.657 285.1 250.924 285.1ZM261.156 283.41V290.75C261.156 291.323 261.27 291.727 261.496 291.96C261.723 292.193 262.053 292.31 262.486 292.31C262.9 292.31 263.303 292.187 263.696 291.94C264.09 291.687 264.41 291.367 264.656 290.98V283.41H267.296V294H264.996L264.856 292.7C264.476 293.22 263.99 293.617 263.396 293.89C262.803 294.163 262.19 294.3 261.556 294.3C260.536 294.3 259.773 294.013 259.266 293.44C258.766 292.86 258.516 292.07 258.516 291.07V283.41H261.156ZM270.608 294V292.17H272.098V285.23H270.608V283.41H274.108L274.598 285.84C274.985 284.94 275.472 284.263 276.058 283.81C276.645 283.35 277.382 283.12 278.268 283.12C278.608 283.12 278.908 283.147 279.168 283.2C279.435 283.253 279.688 283.323 279.928 283.41L279.138 285.63C278.932 285.577 278.735 285.537 278.548 285.51C278.362 285.477 278.152 285.46 277.918 285.46C277.185 285.46 276.545 285.747 275.998 286.32C275.458 286.887 275.038 287.657 274.738 288.63V292.17H276.848V294H270.608ZM277.698 287.54V284.73L278.058 283.41H279.928L279.458 287.54H277.698ZM302.943 291.21C302.943 291.617 303.003 291.913 303.123 292.1C303.243 292.28 303.436 292.417 303.703 292.51L303.133 294.28C302.566 294.22 302.083 294.08 301.683 293.86C301.289 293.633 300.986 293.297 300.773 292.85C300.373 293.337 299.866 293.7 299.253 293.94C298.646 294.18 298.009 294.3 297.343 294.3C296.263 294.3 295.406 293.993 294.773 293.38C294.139 292.767 293.823 291.97 293.823 290.99C293.823 289.863 294.263 288.997 295.143 288.39C296.029 287.777 297.283 287.47 298.903 287.47H300.383V286.9C300.383 286.273 300.189 285.82 299.803 285.54C299.416 285.253 298.859 285.11 298.133 285.11C297.793 285.11 297.366 285.157 296.853 285.25C296.346 285.337 295.823 285.473 295.283 285.66L294.653 283.85C295.326 283.597 296.003 283.41 296.683 283.29C297.369 283.17 297.993 283.11 298.553 283.11C300.039 283.11 301.143 283.427 301.863 284.06C302.583 284.687 302.943 285.577 302.943 286.73V291.21ZM298.203 292.39C298.603 292.39 299.006 292.277 299.413 292.05C299.826 291.823 300.149 291.507 300.383 291.1V289.04H299.343C298.363 289.04 297.653 289.197 297.213 289.51C296.779 289.823 296.563 290.267 296.563 290.84C296.563 291.333 296.703 291.717 296.983 291.99C297.263 292.257 297.669 292.39 298.203 292.39ZM309.125 283.41V290.75C309.125 291.323 309.238 291.727 309.465 291.96C309.692 292.193 310.022 292.31 310.455 292.31C310.868 292.31 311.272 292.187 311.665 291.94C312.058 291.687 312.378 291.367 312.625 290.98V283.41H315.265V294H312.965L312.825 292.7C312.445 293.22 311.958 293.617 311.365 293.89C310.772 294.163 310.158 294.3 309.525 294.3C308.505 294.3 307.742 294.013 307.235 293.44C306.735 292.86 306.485 292.07 306.485 291.07V283.41H309.125ZM327.617 293.41C327.224 293.67 326.747 293.883 326.187 294.05C325.627 294.217 325.021 294.3 324.367 294.3C323.074 294.3 322.101 293.967 321.447 293.3C320.794 292.627 320.467 291.733 320.467 290.62V285.28H318.167V283.41H320.467V281.08L323.107 280.76V283.41H326.607L326.337 285.28H323.107V290.61C323.107 291.157 323.241 291.557 323.507 291.81C323.774 292.063 324.204 292.19 324.797 292.19C325.177 292.19 325.524 292.147 325.837 292.06C326.157 291.967 326.447 291.85 326.707 291.71L327.617 293.41ZM333.109 278.93V284.6C333.549 284.1 334.043 283.727 334.589 283.48C335.143 283.233 335.719 283.11 336.319 283.11C337.293 283.11 338.023 283.387 338.509 283.94C339.003 284.487 339.249 285.257 339.249 286.25V294H336.609V286.84C336.609 286.2 336.509 285.747 336.309 285.48C336.116 285.213 335.783 285.08 335.309 285.08C335.029 285.08 334.756 285.147 334.489 285.28C334.229 285.407 333.983 285.58 333.749 285.8C333.523 286.02 333.309 286.267 333.109 286.54V294H330.469V279.19L333.109 278.93ZM344.712 289.51C344.765 290.17 344.915 290.707 345.162 291.12C345.415 291.533 345.738 291.837 346.132 292.03C346.525 292.223 346.962 292.32 347.442 292.32C347.948 292.32 348.425 292.24 348.872 292.08C349.318 291.92 349.758 291.697 350.192 291.41L351.292 292.92C350.798 293.333 350.208 293.667 349.522 293.92C348.842 294.173 348.092 294.3 347.272 294.3C346.125 294.3 345.158 294.063 344.372 293.59C343.592 293.117 343.002 292.46 342.602 291.62C342.202 290.78 342.002 289.813 342.002 288.72C342.002 287.667 342.198 286.717 342.592 285.87C342.985 285.023 343.552 284.353 344.292 283.86C345.032 283.36 345.925 283.11 346.972 283.11C347.945 283.11 348.785 283.323 349.492 283.75C350.198 284.177 350.745 284.79 351.132 285.59C351.518 286.383 351.712 287.34 351.712 288.46C351.712 288.64 351.705 288.823 351.692 289.01C351.685 289.197 351.675 289.363 351.662 289.51H344.712ZM346.982 284.97C346.342 284.97 345.815 285.2 345.402 285.66C344.995 286.113 344.755 286.833 344.682 287.82H349.142C349.128 286.927 348.942 286.23 348.582 285.73C348.228 285.223 347.695 284.97 346.982 284.97ZM354.454 294V283.41H356.754L356.944 284.72C357.397 284.187 357.907 283.787 358.474 283.52C359.04 283.247 359.65 283.11 360.304 283.11C361.257 283.11 361.984 283.387 362.484 283.94C362.984 284.487 363.234 285.257 363.234 286.25V294H360.594V287.28C360.594 286.747 360.56 286.32 360.494 286C360.427 285.673 360.3 285.44 360.114 285.3C359.927 285.153 359.657 285.08 359.304 285.08C359.017 285.08 358.74 285.143 358.474 285.27C358.214 285.397 357.967 285.567 357.734 285.78C357.507 285.993 357.294 286.23 357.094 286.49V294H354.454ZM375.586 293.41C375.193 293.67 374.716 293.883 374.156 294.05C373.596 294.217 372.989 294.3 372.336 294.3C371.043 294.3 370.069 293.967 369.416 293.3C368.763 292.627 368.436 291.733 368.436 290.62V285.28H366.136V283.41H368.436V281.08L371.076 280.76V283.41H374.576L374.306 285.28H371.076V290.61C371.076 291.157 371.209 291.557 371.476 291.81C371.743 292.063 372.173 292.19 372.766 292.19C373.146 292.19 373.493 292.147 373.806 292.06C374.126 291.967 374.416 291.85 374.676 291.71L375.586 293.41ZM384.528 283.41V292.13H387.318V294H378.788V292.13H381.888V285.28H378.888V283.41H384.528ZM382.818 278.07C383.305 278.07 383.698 278.22 383.998 278.52C384.305 278.82 384.458 279.193 384.458 279.64C384.458 280.087 384.305 280.463 383.998 280.77C383.698 281.07 383.305 281.22 382.818 281.22C382.331 281.22 381.935 281.07 381.628 280.77C381.321 280.463 381.168 280.087 381.168 279.64C381.168 279.193 381.321 278.82 381.628 278.52C381.935 278.22 382.331 278.07 382.818 278.07ZM395.76 292.18C396.227 292.18 396.664 292.093 397.07 291.92C397.484 291.747 397.88 291.527 398.26 291.26L399.46 292.95C398.994 293.343 398.43 293.667 397.77 293.92C397.11 294.173 396.404 294.3 395.65 294.3C394.544 294.3 393.594 294.07 392.8 293.61C392.014 293.143 391.407 292.497 390.98 291.67C390.56 290.837 390.35 289.87 390.35 288.77C390.35 287.683 390.564 286.713 390.99 285.86C391.424 285 392.037 284.327 392.83 283.84C393.63 283.353 394.584 283.11 395.69 283.11C396.45 283.11 397.137 283.22 397.75 283.44C398.37 283.653 398.937 283.973 399.45 284.4L398.28 286.02C397.887 285.747 397.48 285.54 397.06 285.4C396.647 285.253 396.217 285.18 395.77 285.18C394.99 285.18 394.354 285.463 393.86 286.03C393.374 286.59 393.13 287.503 393.13 288.77C393.13 289.603 393.244 290.27 393.47 290.77C393.704 291.27 394.017 291.63 394.41 291.85C394.81 292.07 395.26 292.18 395.76 292.18ZM410.873 291.21C410.873 291.617 410.933 291.913 411.053 292.1C411.173 292.28 411.366 292.417 411.633 292.51L411.063 294.28C410.496 294.22 410.013 294.08 409.613 293.86C409.219 293.633 408.916 293.297 408.703 292.85C408.303 293.337 407.796 293.7 407.183 293.94C406.576 294.18 405.939 294.3 405.273 294.3C404.193 294.3 403.336 293.993 402.703 293.38C402.069 292.767 401.753 291.97 401.753 290.99C401.753 289.863 402.193 288.997 403.073 288.39C403.959 287.777 405.213 287.47 406.833 287.47H408.313V286.9C408.313 286.273 408.119 285.82 407.733 285.54C407.346 285.253 406.789 285.11 406.063 285.11C405.723 285.11 405.296 285.157 404.783 285.25C404.276 285.337 403.753 285.473 403.213 285.66L402.583 283.85C403.256 283.597 403.933 283.41 404.613 283.29C405.299 283.17 405.923 283.11 406.483 283.11C407.969 283.11 409.073 283.427 409.793 284.06C410.513 284.687 410.873 285.577 410.873 286.73V291.21ZM406.133 292.39C406.533 292.39 406.936 292.277 407.343 292.05C407.756 291.823 408.079 291.507 408.313 291.1V289.04H407.273C406.293 289.04 405.583 289.197 405.143 289.51C404.709 289.823 404.493 290.267 404.493 290.84C404.493 291.333 404.633 291.717 404.913 291.99C405.193 292.257 405.599 292.39 406.133 292.39ZM423.555 293.41C423.161 293.67 422.685 293.883 422.125 294.05C421.565 294.217 420.958 294.3 420.305 294.3C419.011 294.3 418.038 293.967 417.385 293.3C416.731 292.627 416.405 291.733 416.405 290.62V285.28H414.105V283.41H416.405V281.08L419.045 280.76V283.41H422.545L422.275 285.28H419.045V290.61C419.045 291.157 419.178 291.557 419.445 291.81C419.711 292.063 420.141 292.19 420.735 292.19C421.115 292.19 421.461 292.147 421.775 292.06C422.095 291.967 422.385 291.85 422.645 291.71L423.555 293.41ZM432.497 283.41V292.13H435.287V294H426.757V292.13H429.857V285.28H426.857V283.41H432.497ZM430.787 278.07C431.274 278.07 431.667 278.22 431.967 278.52C432.274 278.82 432.427 279.193 432.427 279.64C432.427 280.087 432.274 280.463 431.967 280.77C431.667 281.07 431.274 281.22 430.787 281.22C430.3 281.22 429.904 281.07 429.597 280.77C429.29 280.463 429.137 280.087 429.137 279.64C429.137 279.193 429.29 278.82 429.597 278.52C429.904 278.22 430.3 278.07 430.787 278.07ZM442.799 283.11C443.852 283.11 444.746 283.34 445.479 283.8C446.212 284.26 446.769 284.91 447.149 285.75C447.536 286.583 447.729 287.56 447.729 288.68C447.729 289.827 447.536 290.82 447.149 291.66C446.762 292.5 446.202 293.15 445.469 293.61C444.736 294.07 443.842 294.3 442.789 294.3C441.742 294.3 440.849 294.077 440.109 293.63C439.376 293.177 438.816 292.533 438.429 291.7C438.042 290.86 437.849 289.86 437.849 288.7C437.849 287.593 438.042 286.62 438.429 285.78C438.816 284.94 439.379 284.287 440.119 283.82C440.859 283.347 441.752 283.11 442.799 283.11ZM442.799 285.1C442.059 285.1 441.506 285.39 441.139 285.97C440.779 286.55 440.599 287.46 440.599 288.7C440.599 289.953 440.779 290.87 441.139 291.45C441.499 292.023 442.049 292.31 442.789 292.31C443.529 292.31 444.079 292.023 444.439 291.45C444.799 290.87 444.979 289.947 444.979 288.68C444.979 287.447 444.799 286.543 444.439 285.97C444.079 285.39 443.532 285.1 442.799 285.1ZM450.391 294V283.41H452.691L452.881 284.72C453.335 284.187 453.845 283.787 454.411 283.52C454.978 283.247 455.588 283.11 456.241 283.11C457.195 283.11 457.921 283.387 458.421 283.94C458.921 284.487 459.171 285.257 459.171 286.25V294H456.531V287.28C456.531 286.747 456.498 286.32 456.431 286C456.365 285.673 456.238 285.44 456.051 285.3C455.865 285.153 455.595 285.08 455.241 285.08C454.955 285.08 454.678 285.143 454.411 285.27C454.151 285.397 453.905 285.567 453.671 285.78C453.445 285.993 453.231 286.23 453.031 286.49V294H450.391Z" fill="white"/>
<defs>
<filter id="filter0_d_31_9" x="0" y="0" width="930" height="530" filterUnits="userSpaceOnUse" color-interpolation-filters="sRGB">
<feFlood flood-opacity="0" result="BackgroundImageFix"/>
<feColorMatrix in="SourceAlpha" type="matrix" values="0 0 0 0 0 0 0 0 0 0 0 0 0 0 0 0 0 0 127 0" result="hardAlpha"/>
<feMorphology radius="9" operator="dilate" in="SourceAlpha" result="effect1_dropShadow_31_9"/>
<feOffset dx="-2" dy="5"/>
<feGaussianBlur stdDeviation="27"/>
<feComposite in2="hardAlpha" operator="out"/>
<feColorMatrix type="matrix" values="0 0 0 0 0.263681 0 0 0 0 0.0995313 0 0 0 0 0.6125 0 0 0 0.25 0"/>
<feBlend mode="normal" in2="BackgroundImageFix" result="effect1_dropShadow_31_9"/>
<feBlend mode="normal" in="SourceGraphic" in2="effect1_dropShadow_31_9" result="shape"/>
</filter>
<linearGradient id="paint0_linear_31_9" x1="113" y1="161" x2="449" y2="161" gradientUnits="userSpaceOnUse">
<stop stop-color="#5433FF"/>
<stop offset="1" stop-color="#00D9F5"/>
</linearGradient>
<linearGradient id="paint1_linear_31_9" x1="113" y1="161" x2="449" y2="161" gradientUnits="userSpaceOnUse">
<stop stop-color="#00F5A0"/>
<stop offset="1" stop-color="#00D9F5"/>
</linearGradient>
<linearGradient id="paint2_linear_31_9" x1="113" y1="261" x2="341" y2="261" gradientUnits="userSpaceOnUse">
<stop stop-color="#00F5A0"/>
<stop offset="1" stop-color="#00D9F5"/>
</linearGradient>
</defs>
</svg>
